<svg xmlns="http://www.w3.org/2000/svg" viewBox="0 0 64 64" width="64" height="64">
  <!-- Background circle with gradient -->
  <defs>
    <linearGradient id="bgGradient" x1="0%" y1="0%" x2="100%" y2="100%">
      <stop offset="0%" style="stop-color:#667eea;stop-opacity:1" />
      <stop offset="100%" style="stop-color:#764ba2;stop-opacity:1" />
    </linearGradient>
    <linearGradient id="docGradient" x1="0%" y1="0%" x2="100%" y2="100%">
      <stop offset="0%" style="stop-color:#f093fb;stop-opacity:1" />
      <stop offset="100%" style="stop-color:#f5576c;stop-opacity:1" />
    </linearGradient>
    <linearGradient id="aiGradient" x1="0%" y1="0%" x2="100%" y2="100%">
      <stop offset="0%" style="stop-color:#4facfe;stop-opacity:1" />
      <stop offset="100%" style="stop-color:#00f2fe;stop-opacity:1" />
    </linearGradient>
  </defs>
  
  <!-- Main background -->
  <circle cx="32" cy="32" r="30" fill="url(#bgGradient)" stroke="#fff" stroke-width="2"/>
  
  <!-- Document base -->
  <rect x="18" y="12" width="20" height="26" rx="2" fill="url(#docGradient)" opacity="0.9"/>
  
  <!-- Document lines (content) -->
  <line x1="22" y1="18" x2="32" y2="18" stroke="#fff" stroke-width="1.5" opacity="0.8"/>
  <line x1="22" y1="22" x2="34" y2="22" stroke="#fff" stroke-width="1.5" opacity="0.8"/>
  <line x1="22" y1="26" x2="30" y2="26" stroke="#fff" stroke-width="1.5" opacity="0.8"/>
  <line x1="22" y1="30" x2="33" y2="30" stroke="#fff" stroke-width="1.5" opacity="0.8"/>
  
  <!-- AI Brain/Neural network symbol -->
  <circle cx="26" cy="45" r="3" fill="url(#aiGradient)" opacity="0.9"/>
  <circle cx="32" cy="48" r="2.5" fill="url(#aiGradient)" opacity="0.9"/>
  <circle cx="38" cy="45" r="3" fill="url(#aiGradient)" opacity="0.9"/>
  
  <!-- Neural connections -->
  <line x1="26" y1="45" x2="32" y2="48" stroke="url(#aiGradient)" stroke-width="1.5" opacity="0.7"/>
  <line x1="32" y1="48" x2="38" y2="45" stroke="url(#aiGradient)" stroke-width="1.5" opacity="0.7"/>
  <line x1="26" y1="45" x2="38" y2="45" stroke="url(#aiGradient)" stroke-width="1" opacity="0.5"/>
  
  <!-- Personal touch - small star -->
  <polygon points="42,16 43.5,19 47,19 44.5,21.5 45.5,25 42,23 38.5,25 39.5,21.5 37,19 40.5,19" 
           fill="#ffd700" opacity="0.8"/>
  
  <!-- Border highlight -->
  <circle cx="32" cy="32" r="30" fill="none" stroke="rgba(255,255,255,0.3)" stroke-width="1"/>
</svg> 