<svg xmlns="http://www.w3.org/2000/svg" viewBox="0 0 48 48" width="48" height="48">
  <defs>
    <linearGradient id="mainGradient" x1="0%" y1="0%" x2="100%" y2="100%">
      <stop offset="0%" style="stop-color:#667eea;stop-opacity:1" />
      <stop offset="100%" style="stop-color:#764ba2;stop-opacity:1" />
    </linearGradient>
    <linearGradient id="docColor" x1="0%" y1="0%" x2="100%" y2="100%">
      <stop offset="0%" style="stop-color:#f093fb;stop-opacity:1" />
      <stop offset="100%" style="stop-color:#f5576c;stop-opacity:1" />
    </linearGradient>
  </defs>
  
  <!-- Background -->
  <circle cx="24" cy="24" r="22" fill="url(#mainGradient)" stroke="#fff" stroke-width="2"/>
  
  <!-- Document -->
  <rect x="14" y="10" width="16" height="20" rx="2" fill="url(#docColor)" opacity="0.9"/>
  
  <!-- Document content lines -->
  <line x1="17" y1="15" x2="25" y2="15" stroke="#fff" stroke-width="1.2" opacity="0.8"/>
  <line x1="17" y1="18" x2="27" y2="18" stroke="#fff" stroke-width="1.2" opacity="0.8"/>
  <line x1="17" y1="21" x2="24" y2="21" stroke="#fff" stroke-width="1.2" opacity="0.8"/>
  <line x1="17" y1="24" x2="26" y2="24" stroke="#fff" stroke-width="1.2" opacity="0.8"/>
  
  <!-- AI Neural nodes -->
  <circle cx="20" cy="34" r="2.5" fill="#4facfe" opacity="0.9"/>
  <circle cx="24" cy="36" r="2" fill="#00f2fe" opacity="0.9"/>
  <circle cx="28" cy="34" r="2.5" fill="#4facfe" opacity="0.9"/>
  
  <!-- Neural connections -->
  <line x1="20" y1="34" x2="24" y2="36" stroke="#4facfe" stroke-width="1.2" opacity="0.6"/>
  <line x1="24" y1="36" x2="28" y2="34" stroke="#4facfe" stroke-width="1.2" opacity="0.6"/>
  
  <!-- Personal star -->
  <polygon points="32,12 33,14.5 35.5,14.5 33.8,16.2 34.3,18.7 32,17.5 29.7,18.7 30.2,16.2 28.5,14.5 31,14.5" 
           fill="#ffd700" opacity="0.9"/>
</svg> 